<svg xmlns="http://www.w3.org/2000/svg" width="300" height="300"><path d="M32.276 122.689l70.345-66.206 18.965 3.793 26.897-12.414 22.758 2.069 14.828-6.207 4.138 5.172 50.689-2.758 9.656 40-12.414 27.931-14.827 45.172-12.07 24.138-2.414 12.414-12.068 11.38-37.241 11.723-24.483-3.792-19.311 7.93-65.517-24.138-.69-9.31-12.413-10.345 6.207-14.827L34 151.655z"/><path fill="#3D3D3D" d="M141.586 90.276l-8.621 27.913-31.034-9.293 7.586-25.172 18.966-1.379zM163.293 62.552L165.034 76H145l5-15.724z"/><path fill="#686868" d="M152 122v36l-26.965 4.345S84.69 206.138 85.38 205.104s30.345 18.275 30.345 18.275l39.293-12.413 13.81 2.068 37.587-17.586 12.413-43.104s21.725-67.241 22.414-65.862-10.689-5.862-10.689-5.862L234 61.655l-28.966-5.518-44.138 41.725L152 122z"/><path fill="#939393" d="M217.448 136.138l-50 54.137 2.759 17.243 36.207-12.07z"/></svg>