<svg xmlns="http://www.w3.org/2000/svg" width="300" height="300"><path fill="#E05B32" d="M240 55.5c-2.866-4.68-22.454 0-22.454 0l-17.231-12.872c-3.787-2.829-13.012 16.668-13.012 16.668l-17.231-4.572s-9.144-16.528-16.528-2.11c2.109 5.275 15.474 24.265 15.474 24.265s6.329 14.418 0 18.638-7.034 2.813-4.572 8.792-17.61.704-17.61.704l-8.061-9.847S108.18 81.099 96.223 83.913s0 11.253 0 11.253l-27.782 1.758s-14.067-10.902-18.99-3.868-2.11 15.122-2.11 15.122l-9.495 6.33s-.953 4.656-4.923 8.792 19.342 8.44 19.342 8.44-.354 13.011 3.735 14.76 14.549 0 14.549 0l8.524 3.351s.268 4.396 2.378 14.946-16.177-4.924-22.155-5.627-7.736 28.485-7.736 28.485-12.309 21.1-10.55 29.188 16.177 11.957 24.265 14.419 17.231-34.112 28.485-37.98 47.827 4.572 47.827 4.572 19.342-2.11 28.134 4.923 10.901 22.507 10.901 22.507 45.717 22.507 50.288 14.418-1.406-20.748-1.406-20.748l3.165-12.309 1.406-26.375s20.045-25.672 18.287-34.463-14.418-27.43-15.474-38.332 19.342-9.847 21.804-21.452S242.866 60.18 240 55.5zm-130.064 99.098c-5.978-5.626-1.407-12.696-1.407-12.696s8.44-2.128 11.605 2.471-4.22 15.851-10.198 10.225zm17.935-29.188c-6.682 0-18.758-12.121-9.895-15.989s16.225 3.958 18.335 7.475-1.758 8.514-8.44 8.514zm57.321-30.243s4.571 4.571 6.33 2.461 12.309-1.407 10.902 7.385c0 4.22-9.847 3.359-9.495 11.878-5.627-8.361-5.221-4.94-11.957-9.631l4.22-12.093zm21.804 105.852c-11.253.703-10.55-10.551-18.99-18.287 5.627-3.165 3.757-12.66 3.757-12.66s9.606 4.22 12.42 20.396c5.627 2.813 7.736 8.793 2.813 10.551z"/><path fill="#933824" d="M105.06 152.729l13.495 5.135 5.36-14.864H134l11.271 14.864-5.423 25.611-26.102 6.44-14.915-21.694z"/><path fill="#7A2C1F" d="M176.924 148.127l-8.199 15.038L185.271 166H194l16.017-12.355-13.559-7.797z"/><path fill="#AA4327" d="M237.475 93.305l-35.691-3.06 2.034 21.356 26.537 3.06z"/></svg>