<svg xmlns="http://www.w3.org/2000/svg" width="300" height="300"><path d="M151.641 267.432H140.12c-2.642-.248-5.285-.48-7.924-.752-13.375-1.369-26.22-4.796-38.451-10.338-28.534-12.933-49.753-33.488-63.496-61.65-6.457-13.233-10.428-27.226-11.928-41.894-.27-2.636-.5-5.276-.75-7.914v-11.521c.074-.466.192-.93.215-1.398a119.651 119.651 0 013.219-22.356c5.844-24.109 17.543-44.921 35.27-62.305 11.622-11.397 24.976-20.204 39.981-26.5 11.525-4.835 23.496-7.962 35.938-9.239 2.64-.271 5.284-.501 7.925-.75h11.521c.469.075.937.167 1.406.222 5.191.611 10.436.929 15.564 1.873 29.675 5.456 54.744 19.389 74.27 42.361 26.803 31.534 36.62 68.119 28.75 108.721-7.081 36.535-27.15 64.725-58.708 84.49-16.346 10.238-34.272 16.215-53.487 18.209-2.595.27-5.197.495-7.794.741zm56.097-128.295c-.111-.318-.199-.608-.314-.886-5.802-14.006-11.598-28.014-17.438-42.004-.219-.526-.774-1.066-1.305-1.287a7877.87 7877.87 0 00-41.655-17.242c-.63-.258-1.568-.258-2.185.018-13.754 6.165-27.622 12.047-41.753 17.302-.563.209-1.162.799-1.395 1.357a7554.596 7554.596 0 00-17.25 41.656c-.259.632-.236 1.561.026 2.199 5.663 13.779 11.388 27.535 17.061 41.311.395.959.944 1.537 1.876 1.978 13.482 6.369 27.327 11.858 41.298 17.038.686.254 1.653.227 2.332-.053a6960.258 6960.258 0 0041.527-17.207c.627-.264 1.267-.933 1.531-1.565 5.777-13.826 11.504-27.675 17.239-41.52.151-.36.272-.731.405-1.095zm-28.992 86.831c-.102-.067-.303-.224-.52-.35-10.509-6.106-21.022-12.201-31.517-18.333-.735-.43-1.259-.284-1.917.066-6.459 3.438-12.93 6.854-19.396 10.275-4.538 2.4-9.075 4.805-13.485 7.141l33.916 34.168 32.919-32.967zm54.835-54.243l34.481-32.587c-11.461-10.705-22.75-21.25-34.094-31.843-.262.368-.422.572-.561.789-6.413 10.074-12.817 20.156-19.256 30.214-.434.675-.346 1.119.035 1.742 6.256 10.224 12.488 20.461 18.729 30.693.181.288.381.566.666.992zM57.834 107.357L23.73 139.119l34.074 31.808c.232-.311.372-.474.485-.653 6.434-10.116 12.854-20.241 19.319-30.338.489-.764.261-1.227-.133-1.845-6.287-9.849-12.559-19.707-18.836-29.561-.229-.362-.483-.706-.805-1.173zm120.182-55.369c-10.757-10.981-21.42-21.87-31.707-32.372l-33.497 32.713c.371.254.538.388.721.493 10.498 6.039 21.002 12.067 31.485 18.132.702.406 1.166.259 1.77-.107 7.379-4.47 14.771-8.92 22.155-13.377 2.978-1.795 5.952-3.595 9.073-5.482zm-77.922 3.209l-42.478-1.789L60.41 94.88l39.684-39.683zm91.705-.221l39.297 39.301 1.215-39.943-40.512.642zm40.49 168.92c-.536-13.399-1.064-26.646-1.584-39.619l-38.811 38.809 40.395.81zm-133.274-1.833l-38.343-38.342-1.224 40.12c13.312-.599 26.451-1.191 39.567-1.778zm-1.9 29.966c8.331 4.674 34.923 10.877 41.679 9.835l-31.515-31.503-10.164 21.668zM227.38 99.114l-41.379-41.388c.011-.158-.017-.069.002.01 2.517 10.82 5.044 21.638 7.535 32.464.188.824.619 1.1 1.376 1.277 7.678 1.791 15.348 3.617 23.021 5.428 3.213.758 6.43 1.504 9.445 2.209zm-41.276-49.232l43.863-.701c-10.242-9.53-21.392-16.916-33.902-22.506-3.318 7.729-6.588 15.352-9.961 23.207zm9.862 47.165l15.12 36.461 18.197-28.594-33.317-7.867zm-133.47 76.267c11.142 2.633 22.076 5.215 33.277 7.859l-15.1-36.449c-6.12 9.628-12.093 19.022-18.177 28.59zm148.55-28.493l-15.108 36.484c11.108-2.428 21.942-4.794 32.963-7.201-5.933-9.729-11.799-19.353-17.855-29.283zm-106.248-86.26l-40.701 40.7c.01-.001.178-.013.339-.051 10.721-2.56 21.438-5.14 32.17-7.651 1.011-.237 1.422-.639 1.626-1.632 1.601-7.768 3.259-15.523 4.893-23.285.572-2.712 1.125-5.428 1.673-8.081zM62.534 105l18.148 28.498 15.081-36.412L62.534 105zm77.448-30.597l-.114-.442-29.427-16.912-6.735 31.965.27.333 36.006-14.944zm48.133 114.745c-12.202 5.062-24.17 10.022-36.379 15.086l29.652 17.229a64635.44 64635.44 0 006.727-32.315zM108.469 46.535l30.339-30.33c-13.796.779-27.192 3.846-40.195 9.253l9.856 21.077zm79.492 42.483l-7.545-32.434-28.791 17.385 36.336 15.049zm38.742 90.905c-.292.056-.713.124-1.129.216-10.172 2.215-20.338 4.447-30.518 6.621-.99.211-1.324.678-1.506 1.592-.902 4.527-1.867 9.043-2.805 13.563-1.229 5.919-2.451 11.839-3.646 17.61 13.157-13.154 26.37-26.368 39.604-39.602zm-123.224 38.531c-.01-.222.009-.511-.041-.787-1.799-9.901-3.619-19.799-5.386-29.706-.146-.818-.526-1.037-1.24-1.205-9.497-2.229-18.986-4.49-28.479-6.736-1.399-.33-2.806-.627-4.231-.943l39.377 39.377zm126.216 10.584l-42.512-.865c3.373 7.737 6.65 15.261 9.926 22.771 8.377-2.962 28.795-16.674 32.586-21.906zm-46.527 2.868l-30.027 30.029c8.387.418 34.565-5.549 39.168-9.053l-9.141-20.976zM237.41 57.225l-1.271 42.054 22.403-9.755c-5.278-11.93-12.159-22.7-21.132-32.299zm-98.062 147.147l-35.733-14.782 5.575 30.743 30.158-15.961zm129.455-58.397l-29.646 29.824 20.823 9.532c5.12-12.664 8.069-25.701 8.823-39.356zm-214.46 75.164l1.275-42.052-22.128 9.892c1.679 6.568 15.747 28.312 20.853 32.16zM62.821 48.43l41.634 1.754L93.872 27.61c-8.683 3.443-26.151 15.134-31.051 20.82zm40.278 178.638c-13.897.632-27.496 1.248-41.399 1.879 9.339 8.693 19.42 15.615 30.66 21.023l10.739-22.902zm88.183-202.411c-12.521-4.892-25.269-7.769-38.417-8.435l29.412 29.421c2.938-6.842 5.939-13.836 9.005-20.986zm46.101 196.814c8.604-9.591 15.354-19.926 20.547-31.383l-22.199-10.177 1.652 41.56zM22.951 145.897c.729 13.318 3.53 25.996 8.389 38.353l20.65-9.236-29.039-29.117zm28.996-42.566l-20.699-9.075c-4.797 12.329-7.609 24.905-8.277 38.086l28.976-29.011zm208.59-9.006l-20.508 8.932 28.738 28.847c-.706-12.935-3.454-25.483-8.23-37.779zM33.254 89.459l22.234 9.756-2.729-40.606c-8.173 9.477-14.559 19.626-19.505 30.85z"/></svg>