<svg xmlns="http://www.w3.org/2000/svg" width="300" height="300"><path fill="#FFC200" d="M128.138 40.62l-15.862 17.586-9.311 27.586-27.241 37.586 26.207 65.862s19.586 29.986 48.069 36.027 43.311 0 43.311 0 37.586-46.026 37.586-56.372-6.551-46.897-8.275-53.793-31.035-33.448-31.035-33.448l-14.138-24.138s-17.931-17.241-30.689-21.034-18.622 4.138-18.622 4.138z"/><path fill="#FFF" d="M129.974 43.517l9.082 40.276 10.886 9.965s-2.523 9.293 3.339 11.362 11.394 7.233 14.497 2.061 12.283-14.142 12.283-14.142S182 108.207 182 114.758V134s5.543 5.585 12.095 4.896 20.814-7.192 20.814-7.192 3.855-10.049.063-14.877 7.962-.25 7.962-.25l-30.112-33.779-15.382-25.281-27.444-19.835c0-.001-18.875-4.371-20.022 5.835z"/></svg>