<svg xmlns="http://www.w3.org/2000/svg" width="300" height="300"><path fill="#A6AFB2" d="M81.518 90.55l24.517-11.498 14.845-12.319 8.285-1.918L143.311 60H157l4.241 5 11.034 3.896 4.594 13.959 10.303 3.972 33.38 30.03 20 23.246L276.414 152s10.689 2.414 11.034 9.311-10.689 14.826-13.104 18.965-33.793 10.104-33.793 10.104L208.827 195 125 194l-29.827-6.477-37.38-.593-23.104-10.724s-23.483-16.863-25.896-23.069C6.379 146.931 5.173 130.5 7.931 128s6.414-25.311 9.862-27.724 36.897-9.039 38.966-9.347 24.759-.379 24.759-.379z"/><path fill="#514C47" d="M156.215 98.922l-15.849 13.264L109 109.931V126h36l27.275-26.828-6.206-4.978z"/><path fill="#564141" d="M37.448 178.207l17.974-6.371 9.267-3.284-27.241-36.207L15.035 102 4.689 125.5l3.104 30.638z"/><path d="M80.793 176.37l-25.423-4.591-17.948 6.4 13.807 7.6 24.144 4.145 18.968-1.583L125.035 194H200l-19.448-15.543-41.724 2.289z"/><path fill="#9EB2B7" d="M167.922 76.948l-32.823 19.595-86.929 20.315 32.277-20.015L147 74.759V65l15.371 3.896 7.711 2.415z"/><path fill="#443B3B" d="M174.345 74.069l2.414 35.715 5.862 7.074L200 163.379z"/><path fill="#6D5555" d="M268.586 174.647L205.379 157H237l25.275 7H270z"/></svg>