<svg xmlns="http://www.w3.org/2000/svg" width="300" height="300"><path fill="#4C4C4C" d="M122.716 80.585s16.702-5.673 24.836-3.301c8.136 2.373 9.198-9.786 15.639-7.074s12.905 3.411 15.956 2.395 13.231-1.684 14.587 4.079 9.835 17.294 10.514 19.328-13.896 9.155-13.896 9.155l3.731 6.442L223.575 95l21.357 6.102 2.372 20.419s21.019 6.7 23.391 9.073-2.712 17.627-2.712 17.627l-1.356 23.051s-5.762 7.458-21.017 10.848-28.476 21.11-38.983 28.135-33.56 0-33.56 0L163.576 195l-26.45 14.237-9.482-1.695-4.746-5.763-26.78 7.458-31.187-6.102-12.296-12.203L40 183.813V176l2.987-13.542-19.875-76.95s40.74-21.017 51.927-18.983 47.677 14.06 47.677 14.06z"/><path fill="#C6C6C6" d="M26.627 87.542s75.933-28.475 80.678-25.763 9.152 12.791 9.152 12.791L132.39 115l11.187 31.525-6.45 9.491-77.618 29.831-32.882-98.305z"/><path fill="#EDEDED" d="M116.119 76.017L91.373 93.644l41.017 19.661z"/><path fill="#636363" d="M44.593 153.983l21.695-13.56s29.492 6.78 30.848 8.136 0 22.712 0 22.712l-37.627 14.237-8.475-12.204-6.441-19.321z"/><path fill="#444" d="M65.072 100.737l5.545 23.911L62 127.542V113l-24.775.305z"/><path fill="#262626" d="M159.391 97.364l-2.315 19.284L163.915 140H177l14.21-10.762 7.281-5.515-8.136-15.977L183.576 91H175z"/><path fill="#A0D3F2" d="M168.211 147.746l3.445 8.881 30.198 6.17L215.779 171H231s4.102-8.543 4.102-9.56S232.39 150 232.39 150l-12.881-10H200l3.576-10.763-35.365 18.509z"/></svg>