<svg xmlns="http://www.w3.org/2000/svg" width="300" height="300"><path fill="#5E5853" d="M62 94.095l-11.759 36.194s-33.725 40.828-31.707 45.925 70.983 30.27 70.638 34.752 50.359 5.104 50.359 5.104l82.744 9.93H260l-6-49.957 1.034-22.193s-2.069-7.994-3.104-11.442 0-22.79-1.379-29.341-8.621-23.463-12.414-25.188-1.034-13.111-1.034-13.111-19.654-11.383-27.241-17.59-16.552-5.519-30.345-6.898 2.414-9.312-20-8.277-40 5.861-47.931 12.068-37.931 17.24-37.931 21.033S62 94.095 62 94.095z"/><path fill="#FFF2BB" d="M73.655 124.759c-1.379 1.034-10 11.379-10.345 17.241s14.827 26.207 19.655 23.793 7.242-16.551 6.897-17.931-16.207-23.103-16.207-23.103z"/><path fill="#423E3B" d="M181.586 141.311s24.828 27.931 25.862 27.931 20.689 6.897 20.689 8.966-46.551-36.897-46.551-36.897z"/><path fill="#47433F" d="M150 114.069l-4.276 10.69 13.449 5.862-2.414 6.207 6.552-4.828z"/><path fill="#423E3B" d="M181.586 95.104s-9.655-21.035-10.345-22.414-15.517 0-15.517 0l14.482 17.242 11.38 5.172z"/><path fill="#5E5853" d="M103.311 88.896l-15.863-10 5.517 8.276z"/><path fill="#423E3B" d="M182 192h-26l13 12.414z"/><path fill="#282624" d="M230.656 74.706l-2.638 16.751 6.265 6.306 3.824 19.705-4.984 1.404 2.94 31.115-5.584 50.973-2.479-4.478V204l12 4.552V218l12.275 9H258l-2.966-36.725-3.793-11.989 4.828-12.295-5.517-24.68-.345-25.518-4.138-20.689-8.276-7.932.689-8.276z"/></svg>