<svg xmlns="http://www.w3.org/2000/svg" width="300" height="300"><path fill="#DBDBDB" d="M142.095 98.561l-86.461 17.581-21.679 9.653-24.116 28.103 13.805 20.86 7.592 10.689 4.141 14.827 10.346 13.519L78.138 218H95l41.759-16.095 22.759 3.323 47.931-3.511 43.793-22.445 19.311-15.878-2.311-6.904L288 140.621V131l-19.423-6.586-6.427-9.31s-14.765-5.518-15.454-4.483-8.935-4.138-8.935-4.138l-27.915 6.552-46.889-12.759-20.862-1.715z"/><path fill="#BCBCBC" d="M137.793 198.207s68.62-28.966 67.586-25.862S227.104 182 227.104 182l-69.311 14.482-20 1.725z"/></svg>