<svg xmlns="http://www.w3.org/2000/svg" width="300" height="300"><path fill="#4C4C4C" d="M179.13 19.931L152.621 31H138l-24.689 7.225-30 12.396-11.035 35.517-30 41.725L34 139.241l-21.724 29.311 9.655 26.896 7.586 9.311 4.828-1.38 31.379 40 5.862 3.794 33.448 3.448s60.345-9.655 64.483-9.655 23.104-4.827 23.104-4.827L204 230.621l8.621-15.862 22.413-14.483 9.655-15.861 23.793-1.38 9.655-24.482-17.586-30.345-15.862-22.759-65.559-85.518z"/><g fill="#282828"><path d="M113.311 72.345L107.793 150l17.931 68.896 15.172 9.311L133.311 150zM177.448 22.345l-4.482 27.931 6.207 10zM189.017 114.828c0 1.724-24.232 45.482-24.232 45.482l30.487 9.639L203 187.173V168l7.207-22.552-21.19-30.62zM115.724 230.621l10-5.517L150 236.827l-25.655 10.346-41.034-7.587zM157 36h-14l-23.828 2.225L138.086 31H148z"/></g></svg>