<svg xmlns="http://www.w3.org/2000/svg" width="300" height="300"><path fill="#D6D9EA" d="M144.241 21.776l-16.138 7.008L126 44.414V55l-21.311 17.189L81.931 91H66l-10.276 25.483-1.379 8.965S35.035 130.62 35.724 132s5.862 44.348 5.862 44.348l17.931 31.325L88.138 253H110l26.414-3.759 34.828-15.172 39.655-8.966 32.414-21.725s3.792-29.907 4.827-35.815 2.069-21.425 2.069-32.805-16.896-36.208-20-40.69-25.518-41.724-35.518-47.241-27.24-14.138-31.724-18.965-18.724-6.086-18.724-6.086z"/><path fill="#E4E6EF" d="M141 106v26l24.379-5.862 24.828 3.448 20.689-.345-25.517-26.552-11.724-8.62z"/><path fill="#B9BBC1" d="M178.482 179.241L147.448 150l-30.689 14.621 28.62 12.897 14.139 15.861zM196.104 138.276L183 147.862V158l27.896 2.275z"/><path fill="#7E7F82" d="M237.104 193.379s-3.793-14.828-4.138-16.896-34.139 20.345-34.139 20.345l17.242 10.69 21.035-14.139zM143.896 191.933l6.104-9.232-26.71-15.138-18.255 4.126-4.139-4.126-2.758 6.851L109.862 182zM122.621 96.138l13.793-21.724-9.31-15.173-17.587 16.552zM159.518 44.414l7.93 1.724 31.379 37.586 21.38 10.345-2.242 5.517-24.654-1.724-28.966-34.138-16.724-17.241z"/></svg>