<svg xmlns="http://www.w3.org/2000/svg" width="300" height="300"><path fill="#D3D1BE" d="M171.827 29.966l25.053 7.448s5.11 9.404 7.697 8.714 18.35-4.062 20.453.04 11.984 18.881 11.984 18.881l13.545 16.242 11.72 18.697-12.07 6.867s4.138 6.886 5.861 14.118 1.723 14.49 1.723 14.49L249.173 146l6.552 13.682s6.206 19.562 2.068 21.974-27.293 24.97-27.293 24.97l-9.604.771-14.138 11.844-4.138-2.24-20.346 6.378-14.138 24.138-26.875 4.449s-32.288 12.035-37.878 12.035L90 264l-13.896-23.036L84 228.205 69.517 203.25l-2.896-5.687-18.829 2.366-6.552-4.481-4.828 4.137L27.104 177l8.276-15-14.828-13.056 9.311-20.739 11.724 1.724 12.659-33.793 33.892-14.844L103.384 85l11.809-15.506 23.575-12.714 16.267-10.299c-.001 0 12.493-17.793 16.792-16.515z"/><path fill="#FFF" d="M164.689 40.276L194 103.035 157.448 53.38c0-.001 1.379-13.794 7.241-13.104zM204.517 107.034L179 48.552V30l11.207 5.448-1.034 18.621z"/><path fill="#FFF" d="M192.206 37.431L201 43.035V67l7.482 38.104-18.373-47.803zM208.482 50.621l-1.723 26.896 3.793 31.035L214 99.931l3.448-13.448-5.344-17.966L214 58.896zM217 48v15l5.604 5.517L225 62v-8zM167.104 138.207S146.345 152.69 150 153.725s10.896 6.552 14.689 6.896 10.345-2.068 9.655-5.862c-.689-3.794-7.24-16.552-7.24-16.552zM179 156.827l-1.896 9.311 1.896 2.759s14.311-2.413 15-4.482-6.552-6.553-8.448-7.587-6.552-.001-6.552-.001z"/><path fill="#EAEAEA" d="M59.207 152.827l6.189 6.138s-.698 2.608-.008 3.701 7.927 11.076 7.927 11.076l7.928-6.906-5.863-8.28-7.242-2.187-11.345-10.747L52 149.431V154l7.207-1.173zM174.396 168.896l6.846 2.069 10.517-2.069 2.242-4.482 8.621 15.861-3.325 9.311s-8.694-4.482-10.788-5.172-14.113-15.518-14.113-15.518zM165 174h8l4.104 15.586-9.656 5.862-10-10.723L150 177l10.207-1.552zM143.776 156.195l-8.215 20.719L147 184.725V172l4.586-12.318zM115.724 150s-14.482 9.126-12.069 12.632S121.241 174 121.241 174s-1.724-18.759-5.517-24zM109 174v12s21.208 10.482 22.586 7.379S114.689 177 114.689 177L109 174z"/><path fill="#B7B7B7" d="M54.345 138.207l28.621 7.415 5.172 14.06-19.31-5.957-12.034-8.103c-.001 0-3.139-5.346-2.449-7.415zM122.604 81.293l-7.578 13.44L127.793 103H115l-2.687 11.759 77.796 18.276 44.236 27.619 21.38-.972-5.173-14.061 7.241-12.586-4.827-12.061-109.393-22.767zM64.207 189.5L88 204.759V217zM76.104 207.396L84 228.207V219zM139.172 195.448l-14.138 2.414L150 217.802s8.138-.285 7.448-5.457-18.276-16.897-18.276-16.897z"/><path fill="#7E7F6F" d="M112.482 124.414L120.331 142H132l-9.759-21.026zM126 120.974l15.056 3.785 8.409 8.965 2.069 8.276-8.193 11.725L126 126.483z"/><path fill="#42423A" d="M135.681 56.78l-23.308 14.464-3.222 5.916L97 89.241V99l9.759-7.961L125.035 78H132l3.561-6.357 21.887 6.247-18.681-14.511zM76 110.138l12 13.586V140l-23.845-11.793L76 119.241z"/><path fill="#2B2B26" d="M48.138 164.414l-2.069 14.482L60.896 177l13.793 12.586 5.363-13.793-8.86-1.793-6.985-7.862zM122 146v18l14 9.742V162zM228.827 181.655s-2.068 16.897-2.068 15.862 8.275-3.564 8.275-3.564l-6.207-12.298z"/><path fill="#FFFEE3" d="M141 56.78l19.766 14.487 30.796 28.722L141 63.035zM230.896 65.052l-7.585 6.137L221 85h4zM194 135.464l-18.275 10.157-1.329 5.688 10.657-3.792s6.188 2.856 8.947 1.428 0-13.481 0-13.481zM88.138 87.861l-8.086 3.103 5.672 9.025 6.897-9.715zM80.052 99.989l-10.535 11.665L76 110.138l5.243 3.585zM103.384 99L97 103.035l6.384 2.069L109 99.989zM134.345 207.396L129 211.999l12.483 5.803zM129 225.792s5.362-2.414 6.561-2.414 8.013 9.655 8.013 9.655l-11.913-1.725-2.661-5.516zM127.224 212.6l-2.189 8.364 6.965 2.414zM227 164v18l7 7.5zM215.034 156.195l2.414 14.265 1.379-10.589zM243 75.026l-19.655 28.009L243 81.293zM237 71.267L220.896 99 237 78.385zM184.811 103.035l-33.225-23.449-15.299-4.56 18.058 14.004z"/></svg>