<svg xmlns="http://www.w3.org/2000/svg" width="300" height="300"><path fill="#E8E8EF" d="M74.966 51.569l54.861-20.992 65.121 33.245 79.732 45.063 9.66 37.247-9.653 11.382-5.384 23.207-10.822 11.96-5.516 19.663s-32.415 16.207-47.932 15.862-22.758 8.62-35.517 10.689-38.966 12.413-46.897 10.689-15.56-6.313-17.931-5.861c-7.241 1.379-11.034 6.055-11.034 6.055l-18.621 1.876-11.448-8.276-5.585-.344V197l7.379-35.689c-5.119-5.406-10-4.828-17.242-5.104-6.207-12.138-1.379-19.724 2.069-32.828s2.414-30 3.793-35.172 20.967-36.638 20.967-36.638z"/><path fill="#888A91" d="M129.862 30.621c-2.069 0-51.034 23.448-51.034 23.448s7.241 59.31 8.621 63.448 106.552 0 106.552 0l21.034-6.207-85.173-80.689z"/><path fill="#7C7D82" d="M274.689 108.896l-59.655 2.415-85.172-80.69 66.897 34.138z"/><path fill="#38383A" d="M97.862 156.207L91.241 220H100zM228 141v21s2.551 10.001 3.931 5.518 4.483-13.793 4.139-20.345C235.725 140.621 228 141 228 141zM272.966 150s-18.621 40.275-18.276 42.345 12.758-5.862 14.138-10 5.862-24.827 5.862-24.827L272.966 150zM95.811 128.396l10.353-9.118 16.849 6.476-4.506-6.418 15.86-.311L123.311 131H96z"/></svg>