<?xml version="1.0" standalone="no"?>
<!DOCTYPE svg PUBLIC "-//W3C//DTD SVG 20010904//EN"
 "http://www.w3.org/TR/2001/REC-SVG-20010904/DTD/svg10.dtd">
<svg version="1.0" xmlns="http://www.w3.org/2000/svg"
 width="614.000000pt" height="614.000000pt" viewBox="0 0 614.000000 614.000000"
 preserveAspectRatio="xMidYMid meet">
<metadata>
Created by potrace 1.11, written by Peter Selinger 2001-2013
</metadata>
<g transform="translate(0.000000,614.000000) scale(0.100000,-0.100000)"
fill="#000000" stroke="none">
<path d="M3646 5795 c-17 -18 -28 -44 -32 -76 -5 -36 -11 -49 -23 -49 -9 0
-83 12 -166 26 -331 56 -379 46 -560 -111 -94 -82 -243 -233 -302 -307 l-53
-67 -87 -3 -87 -3 3 -372 2 -372 -173 0 c-95 -1 -306 -4 -468 -7 -329 -7 -340
-10 -398 -79 -41 -50 -52 -96 -52 -215 0 -123 12 -167 58 -221 60 -70 71 -72
385 -70 l278 2 -17 -26 c-14 -21 -15 -31 -6 -50 l12 -25 -138 -1 c-152 -1
-171 -3 -210 -23 -65 -33 -91 -92 -86 -193 2 -40 10 -86 19 -102 l15 -31 -102
-52 c-57 -29 -111 -56 -121 -60 -9 -4 -22 -19 -27 -34 -6 -15 -30 -46 -55 -70
-24 -24 -57 -63 -74 -86 -43 -63 -81 -95 -122 -102 -46 -8 -56 -20 -65 -76 -5
-31 -17 -55 -38 -77 -17 -17 -46 -47 -64 -67 -18 -20 -41 -36 -52 -36 -24 0
-24 1 -4 -38 13 -28 21 -32 54 -32 21 0 42 -5 45 -10 4 -6 13 -7 24 -1 10 6
33 6 54 2 30 -7 39 -5 56 13 12 12 21 30 21 39 0 9 11 28 23 43 22 26 29 27
102 27 61 1 79 -3 86 -16 6 -9 30 -30 54 -47 25 -17 45 -35 45 -40 0 -15 138
-150 196 -193 29 -20 55 -44 58 -52 3 -8 11 -14 18 -13 8 2 13 -7 13 -24 0
-20 11 -34 43 -58 l44 -31 -8 -62 c-14 -119 -13 -122 25 -125 52 -5 75 4 117
47 21 22 40 38 43 36 10 -11 31 20 31 46 0 45 23 36 100 -40 51 -50 70 -75 70
-94 0 -16 8 -30 19 -37 11 -5 21 -20 23 -32 2 -13 25 -37 58 -60 l55 -38 18
21 c10 12 19 20 20 18 2 -2 10 -15 19 -29 27 -45 94 -83 159 -92 74 -10 112
-36 138 -98 15 -34 46 -70 113 -131 127 -115 125 -114 142 -99 12 9 18 7 33
-9 9 -12 27 -21 40 -21 14 0 28 -11 39 -29 9 -16 32 -36 50 -44 26 -13 33 -23
36 -49 2 -22 8 -33 18 -32 11 1 15 -12 17 -48 3 -80 85 -182 178 -222 22 -10
55 -24 72 -32 37 -15 89 -9 115 14 10 8 22 29 28 48 10 30 33 47 56 43 42 -7
84 26 84 66 0 18 -5 25 -20 25 -11 0 -20 4 -20 9 0 12 50 84 69 98 23 17 26 8
7 -31 -24 -50 -20 -71 20 -116 35 -38 36 -43 32 -100 -3 -41 -11 -69 -26 -90
-12 -16 -31 -54 -43 -84 -23 -63 -49 -87 -83 -77 -33 9 -79 67 -73 91 7 25 -5
25 -28 0 -9 -10 -27 -18 -39 -17 -18 2 -22 -5 -29 -48 -11 -64 -34 -120 -59
-142 -19 -17 -20 -17 -33 0 -15 21 -25 22 -25 2 0 -8 -13 -28 -30 -45 -36 -37
-47 -88 -32 -156 6 -29 9 -60 7 -70 -2 -11 -4 -27 -4 -36 -1 -11 -6 -15 -15
-12 -9 4 -19 -9 -30 -41 -18 -53 -9 -85 24 -85 11 0 24 -9 30 -21 6 -11 17
-19 25 -17 13 3 250 223 358 333 75 76 166 256 197 388 39 169 105 314 170
369 25 22 40 45 44 67 l6 35 -25 -24 c-21 -19 -25 -21 -25 -7 0 9 -7 17 -15
17 -8 0 -15 5 -15 10 0 6 -7 10 -14 10 -12 0 -13 6 -4 30 7 22 18 33 39 37 16
3 29 8 29 10 0 9 -45 42 -57 43 -15 0 -17 16 -3 25 6 3 10 21 10 40 0 29 4 35
34 45 18 6 41 19 51 30 16 18 16 19 -4 32 -12 7 -21 19 -21 27 0 10 10 5 29
-13 16 -15 31 -24 34 -19 3 4 5 42 6 83 0 54 4 76 15 82 9 5 13 15 10 23 -4 8
-2 16 2 16 5 1 20 3 33 4 13 1 26 7 30 12 3 6 32 13 64 17 53 7 57 9 51 30 -3
12 -1 34 5 48 8 22 18 27 61 33 50 7 51 8 44 34 -4 14 -8 46 -8 71 -1 44 0 45
32 48 l32 3 -6 85 c-6 70 -5 84 8 84 16 0 40 -64 31 -86 -3 -9 1 -14 12 -14
15 0 17 6 11 37 -3 21 -6 53 -6 71 0 29 -3 32 -30 32 -28 0 -30 2 -31 43 -1
23 -2 56 -3 72 -1 29 0 30 54 35 48 4 55 8 58 28 2 15 -1 23 -10 21 -31 -4
-40 2 -35 21 3 12 -1 23 -9 28 -11 6 -13 21 -8 65 7 56 24 80 24 33 0 -14 5
-28 11 -31 6 -4 8 -14 4 -22 -8 -23 52 -74 80 -67 30 7 50 -18 35 -46 -9 -17
-6 -25 22 -50 39 -36 50 -38 48 -7 -5 54 -1 59 30 55 17 -3 35 1 41 8 6 7 22
10 37 8 30 -6 53 17 45 45 -8 32 16 34 42 4 26 -28 27 -40 10 -118 -12 -56
-14 -58 -30 -45 -7 6 -15 23 -17 37 -3 26 -32 53 -44 41 -3 -4 0 -24 7 -45 7
-21 12 -74 12 -118 0 -90 -18 -139 -55 -151 -13 -4 -36 -18 -52 -31 -16 -14
-37 -23 -46 -20 -13 3 -16 -1 -12 -19 2 -13 -1 -37 -6 -54 -9 -24 -8 -33 5
-46 14 -14 14 -17 -1 -32 -15 -15 -16 -14 -16 10 0 25 -2 26 -47 23 -44 -3
-48 -6 -53 -32 -3 -15 -2 -42 3 -59 26 -88 -85 -258 -139 -213 -19 16 -36 0
-36 -34 0 -15 -5 -24 -12 -21 -6 2 -27 -19 -46 -47 -47 -69 -74 -89 -122 -89
-34 0 -39 -2 -33 -19 4 -14 0 -23 -13 -30 -16 -8 -30 -5 -67 15 -27 14 -54 23
-61 20 -20 -8 -17 -37 7 -62 15 -16 19 -28 13 -41 -4 -10 -9 -31 -10 -48 -1
-16 -5 -42 -9 -57 -5 -18 -3 -28 4 -28 6 0 11 4 11 9 0 5 23 38 51 73 38 48
73 76 146 120 154 93 375 288 465 412 29 39 73 96 98 126 46 54 165 236 227
348 18 31 62 147 98 257 37 110 80 226 98 257 29 53 35 58 66 58 l34 0 -7 68
c-5 53 -18 90 -59 172 l-52 105 -70 35 c-39 19 -83 44 -99 54 l-28 19 -74 -36
c-84 -42 -84 -42 -84 -24 0 6 -24 59 -53 117 l-52 105 -70 35 c-39 19 -83 44
-98 54 l-28 19 -77 -36 c-42 -20 -93 -41 -113 -47 -19 -6 -53 -28 -74 -50 -43
-44 -57 -45 -112 -4 -40 30 -46 30 -108 -5 -29 -16 -70 -34 -92 -40 -64 -17
-103 -50 -160 -136 -30 -44 -58 -85 -61 -92 -6 -10 -26 -9 -88 4 -73 14 -87
21 -155 75 -233 186 -274 238 -338 431 -48 143 -49 146 -48 268 0 107 -3 131
-22 174 -12 27 -30 59 -41 70 -19 20 -240 624 -240 656 0 21 103 178 155 236
73 83 199 119 456 130 l137 6 16 -31 c8 -16 31 -43 49 -59 24 -20 59 -78 119
-198 76 -154 114 -227 199 -382 16 -29 29 -57 29 -62 0 -18 -50 -12 -77 9 -19
15 -34 18 -62 14 -33 -5 -39 -2 -69 35 -34 43 -65 52 -80 25 -8 -14 -13 -10
-31 19 -27 44 -54 54 -87 32 -34 -22 -37 -35 -20 -75 13 -32 13 -35 -10 -53
-27 -21 -30 -41 -10 -76 16 -29 5 -59 -55 -146 l-21 -30 6 38 c3 27 1 37 -7
34 -42 -13 -46 -130 -7 -208 26 -52 212 -237 285 -284 181 -116 333 -83 414
91 20 41 34 131 46 282 4 45 8 93 10 105 2 12 6 54 10 92 3 39 10 88 15 110 5
22 10 58 10 81 0 49 -14 64 -102 108 l-62 31 -53 172 c-29 94 -71 219 -93 278
-22 59 -40 122 -40 139 -1 90 -37 165 -99 207 -20 13 -52 36 -72 52 -20 15
-52 30 -72 34 -30 5 -40 1 -61 -22z m572 -1010 c2 -9 1 -38 -3 -64 l-7 -46
-19 65 c-25 89 -25 96 4 78 12 -9 24 -23 25 -33z"/>
</g>
</svg>
